<?xml version="1.0" encoding="utf-8"?>
<!-- Generator: Adobe Illustrator 16.0.0, SVG Export Plug-In . SVG Version: 6.00 Build 0)  -->
<!DOCTYPE svg PUBLIC "-//W3C//DTD SVG 1.1//EN" "http://www.w3.org/Graphics/SVG/1.1/DTD/svg11.dtd">
<svg version="1.1" id="Capa_1" xmlns="http://www.w3.org/2000/svg" xmlns:xlink="http://www.w3.org/1999/xlink" x="0px" y="0px"
	 width="171.758px" height="119.113px" viewBox="0 0 171.758 119.113" enable-background="new 0 0 171.758 119.113"
	 xml:space="preserve">
<g>
	<path fill="#232323" d="M33.488,30.305c-1.241,3.056-3.66,4.583-7.289,4.583c-2.515,0-4.424-0.795-5.793-2.355
		c-1.369-1.56-2.037-3.533-2.037-5.92s0.668-4.361,2.037-5.92s3.278-2.355,5.793-2.355c3.629,0,6.048,1.528,7.289,4.583
		l-3.533,1.432c-0.859-1.75-2.132-2.642-3.756-2.642c-2.419,0-3.692,1.973-3.692,4.902c0,2.928,1.273,4.902,3.692,4.902
		c1.624,0,2.896-0.892,3.756-2.642L33.488,30.305z"/>
	<path fill="#232323" d="M35.522,26.612c0-2.387,0.732-4.361,2.196-5.92s3.438-2.355,5.952-2.355s4.488,0.796,5.952,2.355
		s2.196,3.533,2.196,5.92s-0.732,4.393-2.196,5.952s-3.438,2.323-5.952,2.323s-4.488-0.764-5.952-2.323S35.522,29,35.522,26.612z
		 M39.66,26.612c0,1.369,0.35,2.546,1.083,3.501c0.732,0.923,1.687,1.401,2.928,1.401s2.196-0.478,2.928-1.401
		c0.732-0.955,1.083-2.132,1.083-3.501s-0.35-2.546-1.083-3.47c-0.732-0.955-1.687-1.432-2.928-1.432s-2.196,0.478-2.928,1.432
		C40.01,24.066,39.66,25.244,39.66,26.612z"/>
	<path fill="#232323" d="M54.903,12.098h3.947v22.536h-3.947V12.098z"/>
	<path fill="#232323" d="M62.064,12.098h3.947v22.536h-3.947V12.098z"/>
	<path fill="#232323" d="M84.216,27.885H73.171c0.096,1.942,1.496,3.629,3.788,3.629c1.623,0,2.928-0.828,3.883-2.483l3.183,1.178
		c-1.369,3.119-3.788,4.679-7.289,4.679c-5.506,0-7.703-4.456-7.703-8.275c0-3.82,2.196-8.276,7.703-8.276
		c2.546,0,4.616,1.05,5.761,2.674c1.146,1.56,1.719,3.438,1.719,5.252V27.885z M73.267,24.766h6.907
		c-0.446-2.037-1.592-3.056-3.438-3.056C74.858,21.71,73.553,23.079,73.267,24.766z"/>
	<path fill="#232323" d="M101.878,30.305c-1.241,3.056-3.66,4.583-7.289,4.583c-2.515,0-4.424-0.795-5.792-2.355
		c-1.369-1.56-2.037-3.533-2.037-5.92s0.668-4.361,2.037-5.92c1.368-1.56,3.277-2.355,5.792-2.355c3.629,0,6.048,1.528,7.289,4.583
		l-3.533,1.432c-0.859-1.75-2.132-2.642-3.756-2.642c-2.419,0-3.692,1.973-3.692,4.902c0,2.928,1.273,4.902,3.692,4.902
		c1.624,0,2.896-0.892,3.756-2.642L101.878,30.305z"/>
	<path fill="#232323" d="M114.512,34.315c-0.828,0.382-1.688,0.573-2.61,0.573c-3.692,0-5.889-2.005-5.889-5.92v-7.003h-2.482
		v-3.374h2.482v-4.01l3.947-2.483v6.493h4.233v3.374h-4.233v6.939c0,1.91,0.7,2.61,2.101,2.61c0.541,0,1.051-0.127,1.528-0.382
		L114.512,34.315z"/>
	<path fill="#232323" d="M117.12,12.162c0.986-0.987,2.642-0.987,3.628,0c0.987,0.986,0.987,2.642,0,3.628
		c-0.986,0.987-2.642,0.987-3.628,0C116.133,14.803,116.133,13.148,117.12,12.162z M116.961,18.591h3.946v16.042h-3.946V18.591z"/>
	<path fill="#232323" d="M122.593,18.591h3.979l3.247,11.172l3.247-11.172h3.979l-5.443,16.042h-3.564L122.593,18.591z"/>
	<path fill="#232323" d="M152.829,27.885h-11.045c0.096,1.942,1.496,3.629,3.788,3.629c1.623,0,2.928-0.828,3.883-2.483l3.183,1.178
		c-1.368,3.119-3.787,4.679-7.289,4.679c-5.506,0-7.702-4.456-7.702-8.275c0-3.82,2.196-8.276,7.702-8.276
		c2.547,0,4.616,1.05,5.762,2.674c1.146,1.56,1.719,3.438,1.719,5.252V27.885z M141.88,24.766h6.907
		c-0.446-2.037-1.592-3.056-3.438-3.056C143.471,21.71,142.166,23.079,141.88,24.766z"/>
	<path fill="#232323" d="M30.344,54.351v-8.446h4.189v23.919h-4.189v-1.758c-0.541,0.98-2.196,2.027-4.122,2.027
		c-5,0-7.77-3.412-7.77-8.783c0-5.372,2.77-8.784,7.77-8.784C27.878,52.527,29.567,53.372,30.344,54.351z M22.844,61.311
		c0,1.621,0.372,2.905,1.115,3.817c0.743,0.912,1.689,1.386,2.837,1.386c1.149,0,2.095-0.439,2.804-1.352
		c0.743-0.912,1.115-2.196,1.115-3.852s-0.372-2.905-1.115-3.817c-0.709-0.912-1.655-1.385-2.804-1.385
		c-1.148,0-2.094,0.473-2.837,1.385C23.216,58.405,22.844,59.689,22.844,61.311z"/>
	<path fill="#232323" d="M38.452,45.973c1.047-1.047,2.804-1.047,3.851,0c1.047,1.047,1.047,2.804,0,3.851s-2.804,1.047-3.851,0
		C37.405,48.777,37.405,47.02,38.452,45.973z M38.283,52.797h4.189v17.027h-4.189V52.797z"/>
	<path fill="#232323" d="M48.452,54.115c1.183-1.047,2.669-1.588,4.459-1.588c1.115,0,2.162,0.236,3.142,0.743l3.209-1.689
		l1.655,2.77l-2.432,1.216c0.439,0.777,0.676,1.689,0.676,2.703c0,1.722-0.608,3.108-1.791,4.156
		c-1.183,1.014-2.669,1.52-4.459,1.52c-0.845,0-1.689-0.135-2.466-0.371c-0.541,0.304-0.811,0.742-0.811,1.283
		c0,0.845,0.541,1.25,1.587,1.25h3.48c3.648,0,5.979,1.791,5.979,5c0,1.317-0.405,2.433-1.183,3.345
		c-1.587,1.858-3.851,2.534-6.554,2.534c-2.263,0-4.122-0.474-5.574-1.453c-1.419-0.98-2.128-2.365-2.128-4.155
		c0-1.386,0.473-2.534,1.385-3.378c-0.574-0.71-0.878-1.588-0.878-2.636c0-1.554,0.709-2.736,2.095-3.581
		c-0.777-0.979-1.183-2.128-1.183-3.513C46.661,56.547,47.27,55.162,48.452,54.115z M51.458,69.621
		c-0.777,0-1.419-0.033-1.959-0.135c-0.236,0.371-0.372,0.878-0.372,1.554c0,1.588,1.52,2.433,3.817,2.433
		c2.365,0,3.547-0.71,3.547-2.095c0-1.183-0.912-1.757-2.736-1.757H51.458z M52.911,60.567c1.351,0,2.331-0.946,2.331-2.297
		c0-1.385-0.98-2.365-2.331-2.365c-1.352,0-2.331,0.979-2.331,2.365C50.58,59.621,51.56,60.567,52.911,60.567z"/>
	<path fill="#232323" d="M63.384,45.973c1.047-1.047,2.804-1.047,3.851,0c1.047,1.047,1.047,2.804,0,3.851s-2.804,1.047-3.851,0
		C62.336,48.777,62.336,47.02,63.384,45.973z M63.215,52.797h4.189v17.027h-4.189V52.797z"/>
	<path fill="#232323" d="M81.626,69.486c-0.878,0.404-1.791,0.607-2.77,0.607c-3.919,0-6.25-2.128-6.25-6.283v-7.433h-2.635v-3.581
		h2.635v-4.256l4.189-2.635v6.892h4.493v3.581h-4.493v7.364c0,2.027,0.743,2.771,2.23,2.771c0.574,0,1.115-0.136,1.622-0.406
		L81.626,69.486z"/>
	<path fill="#232323" d="M84.058,57.256c0.541-2.837,3.075-4.729,6.487-4.729c4.763,0,7.161,2.365,7.161,7.128v10.169H94.26
		l-0.438-2.162c-1.317,1.621-3.074,2.432-5.236,2.432c-3.007,0-5.169-1.892-5.169-5.168c0-3.379,2.939-5.574,7.264-5.574h2.837
		v-0.744c0-1.655-0.979-2.5-2.972-2.5c-1.521,0-2.5,0.642-2.939,1.959L84.058,57.256z M89.564,66.514
		c1.047,0,1.959-0.338,2.736-0.98c0.811-0.642,1.216-1.486,1.216-2.533v-0.338h-2.804c-1.926,0-2.905,0.742-2.905,2.195
		C87.808,65.77,88.449,66.514,89.564,66.514z"/>
	<path fill="#232323" d="M101.186,45.905h4.188v23.919h-4.188V45.905z"/>
	<path fill="#232323" d="M34.5,100.419c-1.317,3.243-3.885,4.865-7.736,4.865c-2.669,0-4.696-0.845-6.148-2.5
		s-2.162-3.75-2.162-6.284c0-2.533,0.709-4.628,2.162-6.283s3.479-2.5,6.148-2.5c3.852,0,6.419,1.621,7.736,4.865l-3.75,1.52
		c-0.912-1.857-2.263-2.804-3.986-2.804c-2.567,0-3.919,2.095-3.919,5.202c0,3.108,1.352,5.203,3.919,5.203
		c1.723,0,3.074-0.946,3.986-2.805L34.5,100.419z"/>
	<path fill="#232323" d="M41.391,105.014h-4.189V87.987h4.189v2.771c1.216-1.926,3.041-3.041,5.034-3.041
		c0.642,0,1.317,0.102,2.061,0.338l-0.777,3.885c-0.506-0.304-1.115-0.473-1.756-0.473c-2.669,0-4.561,2.331-4.561,7.5V105.014z"/>
	<path fill="#232323" d="M50.208,92.446c0.541-2.838,3.074-4.729,6.486-4.729c4.763,0,7.162,2.365,7.162,7.129v10.168h-3.446
		l-0.439-2.162c-1.317,1.621-3.074,2.433-5.236,2.433c-3.007,0-5.169-1.892-5.169-5.169c0-3.379,2.939-5.574,7.263-5.574h2.838
		v-0.743c0-1.655-0.979-2.5-2.973-2.5c-1.521,0-2.5,0.642-2.939,1.96L50.208,92.446z M55.715,101.703
		c1.047,0,1.959-0.338,2.736-0.98c0.811-0.641,1.216-1.486,1.216-2.533v-0.338h-2.804c-1.926,0-2.906,0.743-2.906,2.195
		C53.958,100.96,54.6,101.703,55.715,101.703z"/>
	<path fill="#232323" d="M66.052,91.568v-3.581h2.162v-0.878c0-4.021,2.229-6.014,5.878-6.014c1.284,0,2.331,0.236,3.175,0.676
		l-0.912,3.378c-0.743-0.304-1.419-0.474-2.027-0.474c-1.284,0-1.926,0.71-1.926,2.129v1.183h3.581v3.581h-3.581v13.445h-4.189
		V91.568H66.052z"/>
	<path fill="#232323" d="M89.463,104.676c-0.878,0.405-1.79,0.608-2.77,0.608c-3.919,0-6.25-2.128-6.25-6.284v-7.432h-2.635v-3.581
		h2.635V83.73l4.189-2.635v6.892h4.493v3.581h-4.493v7.364c0,2.027,0.743,2.771,2.23,2.771c0.574,0,1.114-0.135,1.622-0.406
		L89.463,104.676z"/>
</g>
</svg>
