<?xml version="1.0" encoding="utf-8"?>
<!-- Generator: Adobe Illustrator 16.0.0, SVG Export Plug-In . SVG Version: 6.00 Build 0)  -->
<!DOCTYPE svg PUBLIC "-//W3C//DTD SVG 1.1//EN" "http://www.w3.org/Graphics/SVG/1.1/DTD/svg11.dtd">
<svg version="1.1" id="Layer_1" xmlns="http://www.w3.org/2000/svg" xmlns:xlink="http://www.w3.org/1999/xlink" x="0px" y="0px"
	 width="432.988px" height="282.663px" viewBox="0 0 432.988 282.663" enable-background="new 0 0 432.988 282.663"
	 xml:space="preserve">
<path fill="#202020" d="M117.902,80.067H84.103V183.3h33.799c24.284,0,47.979-15.705,47.979-51.617S142.187,80.067,117.902,80.067
	 M135.121,158.108c-6.917,4.707-14.274,6.422-23.254,6.422h-7.118V96.96h7.118c8.979,0,16.337,2.046,23.254,6.753
	c7.065,4.713,11.333,14.098,11.333,27.193C146.455,144.007,142.187,153.394,135.121,158.108"/>
<path fill="#202020" d="M281.438,145.787c10.122,0,18.065-3.072,23.96-9.352c5.893-6.278,8.838-14.347,8.838-23.956
	c0-9.607-2.945-17.551-8.838-23.829c-5.895-6.279-13.839-9.481-23.96-9.481c-10.118,0-18.062,3.202-23.955,9.481
	c-5.897,6.278-8.841,14.222-8.841,23.829c0,9.609,2.944,17.678,8.841,23.956C263.376,142.715,271.32,145.787,281.438,145.787
	 M269.652,98.514c2.947-3.844,6.793-5.764,11.786-5.764c4.999,0,8.842,1.92,11.788,5.764c2.946,3.715,4.357,8.456,4.357,13.964
	c0,5.509-1.411,10.249-4.357,14.093c-2.945,3.716-6.789,5.636-11.788,5.636c-4.993,0-8.839-1.92-11.786-5.636
	c-2.946-3.845-4.355-8.584-4.355-14.093C265.297,106.97,266.707,102.229,269.652,98.514"/>
<rect x="176.075" y="164.53" fill="#202020" width="138.896" height="18.77"/>
<path fill="#202020" d="M207.78,145.873c10.124,0,18.064-3.331,23.958-9.611c3.879-4.127,6.478-9.272,7.805-14.903h-17.27
	c-0.686,1.877-1.583,3.576-2.706,5.038c-2.947,3.718-6.789,5.767-11.788,5.767c-4.997,0-8.84-1.857-11.785-5.57
	c-2.949-3.845-4.359-8.553-4.359-14.062c0-5.509,1.41-10.234,4.359-13.951c2.945-3.843,6.788-5.757,11.785-5.757
	c4.999,0,8.84,1.528,11.788,5.373c1.144,1.447,2.055,4.394,2.744,4.394h17.254c-1.32-5.631-3.928-10.098-7.827-14.255
	c-5.895-6.277-13.835-9.282-23.958-9.282c-10.121,0-18.064,3.306-23.958,9.582c-5.893,6.278-8.84,14.269-8.84,23.877
	c0,9.61,2.947,17.708,8.84,23.983C189.716,142.777,197.66,145.873,207.78,145.873"/>
</svg>
