<?xml version="1.0" encoding="utf-8"?>
<!-- Generator: Adobe Illustrator 16.0.0, SVG Export Plug-In . SVG Version: 6.00 Build 0)  -->
<!DOCTYPE svg PUBLIC "-//W3C//DTD SVG 1.1//EN" "http://www.w3.org/Graphics/SVG/1.1/DTD/svg11.dtd">
<svg version="1.1" id="Capa_1" xmlns="http://www.w3.org/2000/svg" xmlns:xlink="http://www.w3.org/1999/xlink" x="0px" y="0px"
	 width="78.258px" height="50.5px" viewBox="0 0 78.258 50.5" enable-background="new 0 0 78.258 50.5" xml:space="preserve">
<g>
	<path fill="#202020" d="M17.782,11H9.5v28h8.282c6.187,0,12.22-4.853,12.22-14S23.969,11,17.782,11z M22.17,31.263
		C20.408,32.464,18.531,33,16.246,33H14.5V16h1.746c2.285,0,4.162,0.315,5.924,1.516c1.799,1.2,2.886,3.537,2.886,6.874
		S23.969,30.064,22.17,31.263z"/>
	<path fill="#202020" d="M59.438,28.027c2.58,0,4.602-0.783,6.104-2.382c1.501-1.599,2.251-3.655,2.251-6.103
		s-0.75-4.471-2.251-6.069c-1.502-1.599-3.523-2.415-6.104-2.415c-2.578,0-4.601,0.816-6.103,2.415
		c-1.5,1.599-2.251,3.622-2.251,6.069s0.751,4.504,2.251,6.103C54.837,27.244,56.859,28.027,59.438,28.027z M56.436,15.986
		c0.75-0.978,1.73-1.469,3.002-1.469c1.272,0,2.254,0.491,3.002,1.469c0.752,0.947,1.11,2.154,1.11,3.557
		c0,1.403-0.358,2.611-1.11,3.59c-0.748,0.946-1.729,1.435-3.002,1.435c-1.271,0-2.252-0.489-3.002-1.435
		c-0.75-0.979-1.109-2.187-1.109-3.59C55.326,18.14,55.686,16.933,56.436,15.986z"/>
	<rect x="32.5" y="33" fill="#202020" width="35" height="6"/>
	<path fill="#202020" d="M40.676,28.048c2.578,0,4.603-0.25,6.103-1.85C47.768,25.146,48.43,24,48.767,23h-4.397
		c-0.176,0-0.406,0.313-0.691,0.687c-0.75,0.945-1.729,1.167-3.002,1.167c-1.272,0-2.251-0.62-3.002-1.566
		c-0.75-0.979-1.11-2.252-1.11-3.657c0-1.403,0.36-2.645,1.11-3.59c0.751-0.979,1.729-1.485,3.002-1.485
		c1.273,0,2.252,0.868,3.002,1.848C43.971,16.77,44.202,18,44.377,18h4.396c-0.336-2-1-3.06-1.994-4.12
		c-1.5-1.597-3.524-2.608-6.103-2.608s-4.601,0.719-6.102,2.319s-2.252,3.575-2.252,6.022c0,2.447,0.751,4.478,2.252,6.078
		C36.075,27.291,38.098,28.048,40.676,28.048z"/>
</g>
</svg>
